<svg xmlns="http://www.w3.org/2000/svg" width="39.036" height="35.642" viewBox="168 156.697 39.036 35.642"><g data-name="add_a_photo_black_24dp"><path d="M203.642 165.183h-5.38l-3.106-3.394h-10.184v3.394h8.69l3.106 3.395h6.874v20.366h-27.156V173.67h-3.394v15.275a3.404 3.404 0 0 0 3.394 3.395h27.156a3.404 3.404 0 0 0 3.394-3.395v-20.366a3.404 3.404 0 0 0-3.394-3.395Zm-22.064 13.578a8.49 8.49 0 0 0 8.486 8.486 8.49 8.49 0 0 0 8.486-8.486 8.49 8.49 0 0 0-8.486-8.486 8.49 8.49 0 0 0-8.486 8.486Zm8.486-5.092c2.8 0 5.092 2.292 5.092 5.092s-2.292 5.092-5.092 5.092-5.092-2.291-5.092-5.092c0-2.8 2.292-5.092 5.092-5.092Zm-13.578-8.486h5.092v-3.394h-5.092v-5.092h-3.394v5.092H168v3.394h5.092v5.092h3.394v-5.092Z" fill="#999" fill-rule="evenodd" data-name="Path 845"/></g></svg>