<svg xmlns="http://www.w3.org/2000/svg" width="26.024" height="23.761" viewBox="0 1.131 26.024 23.761"><path d="M23.761 6.789h-3.587l-2.07-2.263h-6.79v2.263h5.794l2.07 2.263h4.583V22.63H5.657V12.446H3.394V22.63a2.27 2.27 0 0 0 2.263 2.263h18.104a2.27 2.27 0 0 0 2.263-2.263V9.052a2.27 2.27 0 0 0-2.263-2.263ZM9.051 15.84a5.66 5.66 0 0 0 5.658 5.657 5.66 5.66 0 0 0 5.658-5.657 5.66 5.66 0 0 0-5.658-5.658 5.66 5.66 0 0 0-5.657 5.658Zm5.658-3.395a3.404 3.404 0 0 1 3.395 3.395 3.404 3.404 0 0 1-3.395 3.394 3.404 3.404 0 0 1-3.394-3.394 3.404 3.404 0 0 1 3.394-3.395ZM5.657 6.79h3.395V4.526H5.657V1.13H3.394v3.395H0v2.263h3.394v3.394h2.263V6.79Z" fill="#fff" fill-rule="evenodd" data-name="Path 845"/></svg>